# xmcd CD database file
# Copyright (C) 1993-1998 Ti Kan
#
# Track frame offsets:
#	150
#	20180
#	40660
#	59687
#	82870
#	97487
#	117525
#	132695
#	150275
#	168335
#
# Disc length: 2498 seconds
#
# Revision: 1
# Processed by: cddbd v1.4b41PL1 Copyright (c) Steve Scherf et al.
# Submitted via: CDValet v3.31 - Copyright (c) 1997 Greg Leichner
#
DISCID=8909c00a
DTITLE=Jon English - Busking
DYEAR=1900
DGENRE=
TTITLE0=Always the Busker
TTITLE1=Love Hangs by a Thread
TTITLE2=Lonely Target
TTITLE3=Only Love can Show the Way
TTITLE4=Younger Days
TTITLE5=High Windows
TTITLE6=Already Gone
TTITLE7=Money Money
TTITLE8=Why Don't We Spend the Night
TTITLE9=We'll Be There
EXTD=
EXTT0=
EXTT1=
EXTT2=
EXTT3=
EXTT4=
EXTT5=
EXTT6=
EXTT7=
EXTT8=
EXTT9=
PLAYORDER=
